<svg xmlns="http://www.w3.org/2000/svg" viewBox="0 0 1200 1000">
  <defs>
    <linearGradient id="hall" x1="0" y1="0" x2="1" y2="1">
      <stop offset="0" stop-color="#f7f1e6"/>
      <stop offset="0.55" stop-color="#decdb4"/>
      <stop offset="1" stop-color="#b9a484"/>
    </linearGradient>
    <linearGradient id="dress" x1="0" y1="1" x2="1" y2="0">
      <stop offset="0" stop-color="#0f382c"/>
      <stop offset="1" stop-color="#267052"/>
    </linearGradient>
  </defs>
  <rect width="1200" height="1000" fill="url(#hall)"/>
  <path d="M720 0h360v1000H720z" fill="#f7f1e6" opacity="0.38"/>
  <path d="M760 104h256v382H760z" fill="#d6c3a7"/>
  <path d="M888 104v382M760 296h256" stroke="#b79255" stroke-width="8" opacity="0.25"/>
  <circle cx="240" cy="220" r="210" fill="#b79255" opacity="0.16"/>
  <path d="M0 780c150-84 300-106 450-65 173 47 321 30 443-52 110-74 212-78 307-11v348H0z" fill="#0f382c" opacity="0.88"/>
  <path d="M310 650c-84 33-138 112-154 238h355c-13-126-67-205-154-238z" fill="#72443d"/>
  <circle cx="352" cy="532" r="88" fill="#c99670"/>
  <path d="M270 512c20-85 73-124 160-118 45 29 69 72 74 130-79-28-157-32-234-12z" fill="#d8c6ab"/>
  <path d="M602 600c-108 48-177 146-205 294h492c-25-151-91-249-199-294z" fill="url(#dress)"/>
  <circle cx="647" cy="462" r="116" fill="#b77f5c"/>
  <path d="M538 452c25-113 91-164 198-153 65 23 105 77 119 160-103-43-208-46-317-7z" fill="#2a493b"/>
  <path d="M500 744c87 43 184 44 291 3" stroke="#f7f1e6" stroke-width="22" stroke-linecap="round" opacity="0.62"/>
  <path d="M447 882c134 34 278 34 431 0" stroke="#b79255" stroke-width="12" stroke-linecap="round" opacity="0.55"/>
  <path d="M524 650c-73 68-140 107-201 117" stroke="#b77f5c" stroke-width="34" stroke-linecap="round"/>
  <path d="M753 648c66 64 133 101 200 111" stroke="#b77f5c" stroke-width="34" stroke-linecap="round"/>
</svg>
