<svg xmlns="http://www.w3.org/2000/svg" viewBox="0 0 1200 1200">
  <defs>
    <linearGradient id="room" x1="0" y1="0" x2="1" y2="1">
      <stop offset="0" stop-color="#e7d6bd"/>
      <stop offset="0.56" stop-color="#f7f1e6"/>
      <stop offset="1" stop-color="#bda98c"/>
    </linearGradient>
    <linearGradient id="green" x1="0" y1="1" x2="1" y2="0">
      <stop offset="0" stop-color="#0f382c"/>
      <stop offset="1" stop-color="#2e7458"/>
    </linearGradient>
  </defs>
  <rect width="1200" height="1200" fill="url(#room)"/>
  <path d="M0 814c169-72 336-85 501-38 156 45 291 34 406-33 105-61 203-63 293-7v464H0z" fill="#0f382c" opacity="0.9"/>
  <rect x="92" y="108" width="438" height="398" rx="26" fill="#f7f1e6" opacity="0.54"/>
  <path d="M311 108v398M92 307h438" stroke="#b79255" stroke-width="7" opacity="0.22"/>
  <circle cx="910" cy="254" r="180" fill="#b79255" opacity="0.18"/>
  <path d="M290 753c-83 34-138 112-150 232h340c-12-119-67-197-150-232z" fill="url(#green)"/>
  <circle cx="310" cy="642" r="85" fill="#c79a73"/>
  <path d="M235 619c14-76 58-113 131-110 62 16 95 59 99 130-82-36-158-43-230-20z" fill="#6f8260"/>
  <path d="M520 714c-98 41-160 132-178 271h414c-18-139-80-230-178-271z" fill="#72443d"/>
  <circle cx="548" cy="586" r="116" fill="#b78561"/>
  <path d="M443 570c28-117 99-164 213-141 44 28 73 76 86 145-104-31-204-33-299-4z" fill="#263b32"/>
  <path d="M768 750c-90 36-145 114-164 235h352c-11-125-62-203-152-235z" fill="#d8c6ab"/>
  <circle cx="806" cy="636" r="91" fill="#d1a47c"/>
  <path d="M721 608c25-95 84-131 177-108 38 24 62 64 72 118-83-24-166-27-249-10z" fill="#0f382c"/>
  <path d="M238 898c202 68 408 67 618-2" fill="none" stroke="#f7f1e6" stroke-width="23" stroke-linecap="round" opacity="0.7"/>
  <path d="M160 1027c284 78 583 76 896-5" fill="none" stroke="#b79255" stroke-width="12" stroke-linecap="round" opacity="0.5"/>
  <circle cx="984" cy="920" r="48" fill="#b79255"/>
  <path d="M965 920h38M984 901v38" stroke="#0f382c" stroke-width="8" stroke-linecap="round"/>
</svg>
